<?xml version="1.0" encoding="UTF-8" standalone="no"?>
<!DOCTYPE svg PUBLIC "-//W3C//DTD SVG 1.1//EN"
 "http://www.w3.org/Graphics/SVG/1.1/DTD/svg11.dtd">
<!-- Generated by graphviz version 2.43.0 (0)
 -->
<!-- Title: %3 Pages: 1 -->
<svg width="1163pt" height="238pt"
 viewBox="0.00 0.00 1162.50 237.74" xmlns="http://www.w3.org/2000/svg" xmlns:xlink="http://www.w3.org/1999/xlink">
<g id="graph0" class="graph" transform="scale(1 1) rotate(0) translate(36 201.74)">
<title>%3</title>
<polygon fill="dimgray" stroke="transparent" points="-36,36 -36,-201.74 1126.5,-201.74 1126.5,36 -36,36"/>
<text text-anchor="middle" x="545.25" y="-150.54" font-family="Helvetica,sans-Serif" font-size="14.00">Sweep&#39;s Plan &amp; Progress</text>
<!-- start -->
<g id="node1" class="node">
<title>start</title>
</g>
<!-- b3542fd6&#45;96cc&#45;44c2&#45;b3f8&#45;0c533fef6995 -->
<g id="node3" class="node">
<title>b3542fd6&#45;96cc&#45;44c2&#45;b3f8&#45;0c533fef6995</title>
<ellipse fill="#0ee832" stroke="black" cx="263" cy="-99.87" rx="166.34" ry="26.74"/>
<text text-anchor="middle" x="263" y="-103.67" font-family="Helvetica,sans-Serif" font-size="14.00">✓ Create</text>
<text text-anchor="middle" x="263" y="-88.67" font-family="Helvetica,sans-Serif" font-size="14.00">src/tests/test_access_control.py</text>
</g>
<!-- start&#45;&gt;b3542fd6&#45;96cc&#45;44c2&#45;b3f8&#45;0c533fef6995 -->
<g id="edge6" class="edge">
<title>start&#45;&gt;b3542fd6&#45;96cc&#45;44c2&#45;b3f8&#45;0c533fef6995</title>
<path fill="none" stroke="black" d="M45.63,-99.87C48.91,-99.87 64.85,-99.87 86.74,-99.87"/>
<polygon fill="black" stroke="black" points="86.82,-103.37 96.82,-99.87 86.82,-96.37 86.82,-103.37"/>
<text text-anchor="middle" x="71.16" y="-106.67" font-family="Helvetica,sans-Serif" font-size="14.00">Start</text>
</g>
<!-- end -->
<g id="node2" class="node">
<title>end</title>
</g>
<!-- c3396f3f&#45;af4f&#45;4ab5&#45;9724&#45;8fcd279bb0c5 -->
<g id="node4" class="node">
<title>c3396f3f&#45;af4f&#45;4ab5&#45;9724&#45;8fcd279bb0c5</title>
<ellipse fill="#0ee832" stroke="black" cx="612" cy="-99.87" rx="97.66" ry="26.74"/>
<text text-anchor="middle" x="612" y="-103.67" font-family="Helvetica,sans-Serif" font-size="14.00">✓ Modify</text>
<text text-anchor="middle" x="612" y="-88.67" font-family="Helvetica,sans-Serif" font-size="14.00">src/problem1d.py</text>
</g>
<!-- b3542fd6&#45;96cc&#45;44c2&#45;b3f8&#45;0c533fef6995&#45;&gt;c3396f3f&#45;af4f&#45;4ab5&#45;9724&#45;8fcd279bb0c5 -->
<g id="edge2" class="edge">
<title>b3542fd6&#45;96cc&#45;44c2&#45;b3f8&#45;0c533fef6995&#45;&gt;c3396f3f&#45;af4f&#45;4ab5&#45;9724&#45;8fcd279bb0c5</title>
<path fill="none" stroke="black" d="M429.32,-99.87C454.2,-99.87 479.08,-99.87 503.95,-99.87"/>
<polygon fill="black" stroke="black" points="504.24,-103.37 514.24,-99.87 504.24,-96.37 504.24,-103.37"/>
</g>
<!-- 01a27f25&#45;1f18&#45;4d7d&#45;b9ee&#45;7963b6ef417b -->
<g id="node6" class="node">
<title>01a27f25&#45;1f18&#45;4d7d&#45;b9ee&#45;7963b6ef417b</title>
<polygon fill="#0ee832" stroke="black" points="428,-36 0,-36 0,0 428,0 428,-36"/>
<text text-anchor="middle" x="214" y="-14.3" font-family="Helvetica,sans-Serif" font-size="14.00">✓ Run GitHub Actions for `src/tests/test_access_control.py`</text>
</g>
<!-- b3542fd6&#45;96cc&#45;44c2&#45;b3f8&#45;0c533fef6995&#45;&gt;01a27f25&#45;1f18&#45;4d7d&#45;b9ee&#45;7963b6ef417b -->
<g id="edge1" class="edge">
<title>b3542fd6&#45;96cc&#45;44c2&#45;b3f8&#45;0c533fef6995&#45;&gt;01a27f25&#45;1f18&#45;4d7d&#45;b9ee&#45;7963b6ef417b</title>
<path fill="none" stroke="black" stroke-dasharray="5,2" d="M246.96,-72.72C241.49,-63.8 235.38,-53.84 229.92,-44.95"/>
<polygon fill="black" stroke="black" points="232.73,-42.84 224.52,-36.15 226.77,-46.5 232.73,-42.84"/>
</g>
<!-- 3a906f43&#45;6879&#45;45b2&#45;a4b9&#45;f921debe495a -->
<g id="node5" class="node">
<title>3a906f43&#45;6879&#45;45b2&#45;a4b9&#45;f921debe495a</title>
<ellipse fill="white" stroke="black" cx="881" cy="-99.87" rx="73.58" ry="26.74"/>
<text text-anchor="middle" x="881" y="-103.67" font-family="Helvetica,sans-Serif" font-size="14.00">▶ Modify</text>
<text text-anchor="middle" x="881" y="-88.67" font-family="Helvetica,sans-Serif" font-size="14.00">README.md</text>
</g>
<!-- c3396f3f&#45;af4f&#45;4ab5&#45;9724&#45;8fcd279bb0c5&#45;&gt;3a906f43&#45;6879&#45;45b2&#45;a4b9&#45;f921debe495a -->
<g id="edge4" class="edge">
<title>c3396f3f&#45;af4f&#45;4ab5&#45;9724&#45;8fcd279bb0c5&#45;&gt;3a906f43&#45;6879&#45;45b2&#45;a4b9&#45;f921debe495a</title>
<path fill="none" stroke="black" d="M709.72,-99.87C738.85,-99.87 767.98,-99.87 797.1,-99.87"/>
<polygon fill="black" stroke="black" points="797.4,-103.37 807.4,-99.87 797.4,-96.37 797.4,-103.37"/>
</g>
<!-- c595bf15&#45;0f53&#45;4bdc&#45;91ed&#45;3532eeefed79 -->
<g id="node7" class="node">
<title>c595bf15&#45;0f53&#45;4bdc&#45;91ed&#45;3532eeefed79</title>
<polygon fill="#0ee832" stroke="black" points="777.5,-36 446.5,-36 446.5,0 777.5,0 777.5,-36"/>
<text text-anchor="middle" x="612" y="-14.3" font-family="Helvetica,sans-Serif" font-size="14.00">✓ Run GitHub Actions for `src/problem1d.py`</text>
</g>
<!-- c3396f3f&#45;af4f&#45;4ab5&#45;9724&#45;8fcd279bb0c5&#45;&gt;c595bf15&#45;0f53&#45;4bdc&#45;91ed&#45;3532eeefed79 -->
<g id="edge3" class="edge">
<title>c3396f3f&#45;af4f&#45;4ab5&#45;9724&#45;8fcd279bb0c5&#45;&gt;c595bf15&#45;0f53&#45;4bdc&#45;91ed&#45;3532eeefed79</title>
<path fill="none" stroke="black" stroke-dasharray="5,2" d="M612,-72.72C612,-64.27 612,-54.89 612,-46.36"/>
<polygon fill="black" stroke="black" points="615.5,-46.15 612,-36.15 608.5,-46.15 615.5,-46.15"/>
</g>
<!-- 3a906f43&#45;6879&#45;45b2&#45;a4b9&#45;f921debe495a&#45;&gt;end -->
<g id="edge7" class="edge">
<title>3a906f43&#45;6879&#45;45b2&#45;a4b9&#45;f921debe495a&#45;&gt;end</title>
<path fill="none" stroke="black" d="M954.72,-99.87C973.34,-99.87 991.14,-99.87 1002.06,-99.87"/>
<polygon fill="black" stroke="black" points="1002.28,-103.37 1012.28,-99.87 1002.28,-96.37 1002.28,-103.37"/>
<text text-anchor="middle" x="983.52" y="-106.67" font-family="Helvetica,sans-Serif" font-size="14.00">Finish</text>
</g>
<!-- 6af31a6e&#45;32cb&#45;4244&#45;8e92&#45;f35031190f0a -->
<g id="node8" class="node">
<title>6af31a6e&#45;32cb&#45;4244&#45;8e92&#45;f35031190f0a</title>
<polygon fill="white" stroke="black" points="1090.5,-36 795.5,-36 795.5,0 1090.5,0 1090.5,-36"/>
<text text-anchor="middle" x="943" y="-14.3" font-family="Helvetica,sans-Serif" font-size="14.00">▶ Run GitHub Actions for `README.md`</text>
</g>
<!-- 3a906f43&#45;6879&#45;45b2&#45;a4b9&#45;f921debe495a&#45;&gt;6af31a6e&#45;32cb&#45;4244&#45;8e92&#45;f35031190f0a -->
<g id="edge5" class="edge">
<title>3a906f43&#45;6879&#45;45b2&#45;a4b9&#45;f921debe495a&#45;&gt;6af31a6e&#45;32cb&#45;4244&#45;8e92&#45;f35031190f0a</title>
<path fill="none" stroke="black" stroke-dasharray="5,2" d="M900.62,-73.6C907.9,-64.22 916.15,-53.59 923.42,-44.22"/>
<polygon fill="black" stroke="black" points="926.41,-46.08 929.78,-36.04 920.88,-41.79 926.41,-46.08"/>
</g>
</g>
</svg>
