<?xml version="1.0" encoding="UTF-8" standalone="no"?>
<!DOCTYPE svg PUBLIC "-//W3C//DTD SVG 1.1//EN"
 "http://www.w3.org/Graphics/SVG/1.1/DTD/svg11.dtd">
<!-- Generated by graphviz version 2.43.0 (0)
 -->
<!-- Title: %3 Pages: 1 -->
<svg width="1160pt" height="238pt"
 viewBox="0.00 0.00 1159.50 237.74" xmlns="http://www.w3.org/2000/svg" xmlns:xlink="http://www.w3.org/1999/xlink">
<g id="graph0" class="graph" transform="scale(1 1) rotate(0) translate(36 201.74)">
<title>%3</title>
<polygon fill="dimgray" stroke="transparent" points="-36,36 -36,-201.74 1123.5,-201.74 1123.5,36 -36,36"/>
<text text-anchor="middle" x="543.75" y="-150.54" font-family="Helvetica,sans-Serif" font-size="14.00">Sweep&#39;s Plan &amp; Progress</text>
<!-- start -->
<g id="node1" class="node">
<title>start</title>
</g>
<!-- b3542fd6&#45;96cc&#45;44c2&#45;b3f8&#45;0c533fef6995 -->
<g id="node3" class="node">
<title>b3542fd6&#45;96cc&#45;44c2&#45;b3f8&#45;0c533fef6995</title>
<ellipse fill="#0ee832" stroke="black" cx="262" cy="-99.87" rx="166.34" ry="26.74"/>
<text text-anchor="middle" x="262" y="-103.67" font-family="Helvetica,sans-Serif" font-size="14.00">✓ Create</text>
<text text-anchor="middle" x="262" y="-88.67" font-family="Helvetica,sans-Serif" font-size="14.00">src/tests/test_access_control.py</text>
</g>
<!-- start&#45;&gt;b3542fd6&#45;96cc&#45;44c2&#45;b3f8&#45;0c533fef6995 -->
<g id="edge6" class="edge">
<title>start&#45;&gt;b3542fd6&#45;96cc&#45;44c2&#45;b3f8&#45;0c533fef6995</title>
<path fill="none" stroke="black" d="M44.63,-99.87C47.91,-99.87 63.85,-99.87 85.74,-99.87"/>
<polygon fill="black" stroke="black" points="85.82,-103.37 95.82,-99.87 85.82,-96.37 85.82,-103.37"/>
<text text-anchor="middle" x="70.16" y="-106.67" font-family="Helvetica,sans-Serif" font-size="14.00">Start</text>
</g>
<!-- end -->
<g id="node2" class="node">
<title>end</title>
</g>
<!-- c3396f3f&#45;af4f&#45;4ab5&#45;9724&#45;8fcd279bb0c5 -->
<g id="node4" class="node">
<title>c3396f3f&#45;af4f&#45;4ab5&#45;9724&#45;8fcd279bb0c5</title>
<ellipse fill="white" stroke="black" cx="610" cy="-99.87" rx="97.66" ry="26.74"/>
<text text-anchor="middle" x="610" y="-103.67" font-family="Helvetica,sans-Serif" font-size="14.00">▶ Modify</text>
<text text-anchor="middle" x="610" y="-88.67" font-family="Helvetica,sans-Serif" font-size="14.00">src/problem1d.py</text>
</g>
<!-- b3542fd6&#45;96cc&#45;44c2&#45;b3f8&#45;0c533fef6995&#45;&gt;c3396f3f&#45;af4f&#45;4ab5&#45;9724&#45;8fcd279bb0c5 -->
<g id="edge2" class="edge">
<title>b3542fd6&#45;96cc&#45;44c2&#45;b3f8&#45;0c533fef6995&#45;&gt;c3396f3f&#45;af4f&#45;4ab5&#45;9724&#45;8fcd279bb0c5</title>
<path fill="none" stroke="black" d="M428.18,-99.87C452.84,-99.87 477.5,-99.87 502.15,-99.87"/>
<polygon fill="black" stroke="black" points="502.34,-103.37 512.34,-99.87 502.34,-96.37 502.34,-103.37"/>
</g>
<!-- 01a27f25&#45;1f18&#45;4d7d&#45;b9ee&#45;7963b6ef417b -->
<g id="node6" class="node">
<title>01a27f25&#45;1f18&#45;4d7d&#45;b9ee&#45;7963b6ef417b</title>
<polygon fill="#0ee832" stroke="black" points="428,-36 0,-36 0,0 428,0 428,-36"/>
<text text-anchor="middle" x="214" y="-14.3" font-family="Helvetica,sans-Serif" font-size="14.00">✓ Run GitHub Actions for `src/tests/test_access_control.py`</text>
</g>
<!-- b3542fd6&#45;96cc&#45;44c2&#45;b3f8&#45;0c533fef6995&#45;&gt;01a27f25&#45;1f18&#45;4d7d&#45;b9ee&#45;7963b6ef417b -->
<g id="edge1" class="edge">
<title>b3542fd6&#45;96cc&#45;44c2&#45;b3f8&#45;0c533fef6995&#45;&gt;01a27f25&#45;1f18&#45;4d7d&#45;b9ee&#45;7963b6ef417b</title>
<path fill="none" stroke="black" stroke-dasharray="5,2" d="M246.28,-72.72C240.93,-63.8 234.94,-53.84 229.59,-44.95"/>
<polygon fill="black" stroke="black" points="232.46,-42.91 224.3,-36.15 226.46,-46.52 232.46,-42.91"/>
</g>
<!-- 3a906f43&#45;6879&#45;45b2&#45;a4b9&#45;f921debe495a -->
<g id="node5" class="node">
<title>3a906f43&#45;6879&#45;45b2&#45;a4b9&#45;f921debe495a</title>
<ellipse fill="white" stroke="black" cx="879" cy="-99.87" rx="73.58" ry="26.74"/>
<text text-anchor="middle" x="879" y="-103.67" font-family="Helvetica,sans-Serif" font-size="14.00">▶ Modify</text>
<text text-anchor="middle" x="879" y="-88.67" font-family="Helvetica,sans-Serif" font-size="14.00">README.md</text>
</g>
<!-- c3396f3f&#45;af4f&#45;4ab5&#45;9724&#45;8fcd279bb0c5&#45;&gt;3a906f43&#45;6879&#45;45b2&#45;a4b9&#45;f921debe495a -->
<g id="edge4" class="edge">
<title>c3396f3f&#45;af4f&#45;4ab5&#45;9724&#45;8fcd279bb0c5&#45;&gt;3a906f43&#45;6879&#45;45b2&#45;a4b9&#45;f921debe495a</title>
<path fill="none" stroke="black" d="M707.72,-99.87C736.85,-99.87 765.98,-99.87 795.1,-99.87"/>
<polygon fill="black" stroke="black" points="795.4,-103.37 805.4,-99.87 795.4,-96.37 795.4,-103.37"/>
</g>
<!-- c595bf15&#45;0f53&#45;4bdc&#45;91ed&#45;3532eeefed79 -->
<g id="node7" class="node">
<title>c595bf15&#45;0f53&#45;4bdc&#45;91ed&#45;3532eeefed79</title>
<polygon fill="white" stroke="black" points="774.5,-36 445.5,-36 445.5,0 774.5,0 774.5,-36"/>
<text text-anchor="middle" x="610" y="-14.3" font-family="Helvetica,sans-Serif" font-size="14.00">▶ Run GitHub Actions for `src/problem1d.py`</text>
</g>
<!-- c3396f3f&#45;af4f&#45;4ab5&#45;9724&#45;8fcd279bb0c5&#45;&gt;c595bf15&#45;0f53&#45;4bdc&#45;91ed&#45;3532eeefed79 -->
<g id="edge3" class="edge">
<title>c3396f3f&#45;af4f&#45;4ab5&#45;9724&#45;8fcd279bb0c5&#45;&gt;c595bf15&#45;0f53&#45;4bdc&#45;91ed&#45;3532eeefed79</title>
<path fill="none" stroke="black" stroke-dasharray="5,2" d="M610,-72.72C610,-64.27 610,-54.89 610,-46.36"/>
<polygon fill="black" stroke="black" points="613.5,-46.15 610,-36.15 606.5,-46.15 613.5,-46.15"/>
</g>
<!-- 3a906f43&#45;6879&#45;45b2&#45;a4b9&#45;f921debe495a&#45;&gt;end -->
<g id="edge7" class="edge">
<title>3a906f43&#45;6879&#45;45b2&#45;a4b9&#45;f921debe495a&#45;&gt;end</title>
<path fill="none" stroke="black" d="M952.72,-99.87C971.34,-99.87 989.14,-99.87 1000.06,-99.87"/>
<polygon fill="black" stroke="black" points="1000.28,-103.37 1010.28,-99.87 1000.28,-96.37 1000.28,-103.37"/>
<text text-anchor="middle" x="981.52" y="-106.67" font-family="Helvetica,sans-Serif" font-size="14.00">Finish</text>
</g>
<!-- 6af31a6e&#45;32cb&#45;4244&#45;8e92&#45;f35031190f0a -->
<g id="node8" class="node">
<title>6af31a6e&#45;32cb&#45;4244&#45;8e92&#45;f35031190f0a</title>
<polygon fill="white" stroke="black" points="1087.5,-36 792.5,-36 792.5,0 1087.5,0 1087.5,-36"/>
<text text-anchor="middle" x="940" y="-14.3" font-family="Helvetica,sans-Serif" font-size="14.00">▶ Run GitHub Actions for `README.md`</text>
</g>
<!-- 3a906f43&#45;6879&#45;45b2&#45;a4b9&#45;f921debe495a&#45;&gt;6af31a6e&#45;32cb&#45;4244&#45;8e92&#45;f35031190f0a -->
<g id="edge5" class="edge">
<title>3a906f43&#45;6879&#45;45b2&#45;a4b9&#45;f921debe495a&#45;&gt;6af31a6e&#45;32cb&#45;4244&#45;8e92&#45;f35031190f0a</title>
<path fill="none" stroke="black" stroke-dasharray="5,2" d="M898.3,-73.6C905.46,-64.22 913.58,-53.59 920.74,-44.22"/>
<polygon fill="black" stroke="black" points="923.7,-46.11 926.99,-36.04 918.14,-41.86 923.7,-46.11"/>
</g>
</g>
</svg>
