<?xml version="1.0" encoding="UTF-8" standalone="no"?>
<!DOCTYPE svg PUBLIC "-//W3C//DTD SVG 1.1//EN"
 "http://www.w3.org/Graphics/SVG/1.1/DTD/svg11.dtd">
<!-- Generated by graphviz version 2.43.0 (0)
 -->
<!-- Title: %3 Pages: 1 -->
<svg width="784pt" height="238pt"
 viewBox="0.00 0.00 783.50 237.74" xmlns="http://www.w3.org/2000/svg" xmlns:xlink="http://www.w3.org/1999/xlink">
<g id="graph0" class="graph" transform="scale(1 1) rotate(0) translate(36 201.74)">
<title>%3</title>
<polygon fill="dimgray" stroke="transparent" points="-36,36 -36,-201.74 747.5,-201.74 747.5,36 -36,36"/>
<text text-anchor="middle" x="355.75" y="-150.54" font-family="Helvetica,sans-Serif" font-size="14.00">Sweep&#39;s Plan &amp; Progress</text>
<!-- start -->
<g id="node1" class="node">
<title>start</title>
</g>
<!-- d0017206&#45;3e3f&#45;45ae&#45;bd64&#45;a9c74415ef86 -->
<g id="node3" class="node">
<title>d0017206&#45;3e3f&#45;45ae&#45;bd64&#45;a9c74415ef86</title>
<ellipse fill="#0ee832" stroke="black" cx="238.5" cy="-99.87" rx="120.42" ry="26.74"/>
<text text-anchor="middle" x="238.5" y="-103.67" font-family="Helvetica,sans-Serif" font-size="14.00">✓ Create</text>
<text text-anchor="middle" x="238.5" y="-88.67" font-family="Helvetica,sans-Serif" font-size="14.00">src/test_problem2c.py</text>
</g>
<!-- start&#45;&gt;d0017206&#45;3e3f&#45;45ae&#45;bd64&#45;a9c74415ef86 -->
<g id="edge4" class="edge">
<title>start&#45;&gt;d0017206&#45;3e3f&#45;45ae&#45;bd64&#45;a9c74415ef86</title>
<path fill="none" stroke="black" d="M67.27,-99.87C70.9,-99.87 87.11,-99.87 108.21,-99.87"/>
<polygon fill="black" stroke="black" points="108.22,-103.37 118.22,-99.87 108.22,-96.37 108.22,-103.37"/>
<text text-anchor="middle" x="92.65" y="-106.67" font-family="Helvetica,sans-Serif" font-size="14.00">Start</text>
</g>
<!-- end -->
<g id="node2" class="node">
<title>end</title>
</g>
<!-- a9d457ac&#45;8bd6&#45;4ee2&#45;abcd&#45;a39982a43ae7 -->
<g id="node4" class="node">
<title>a9d457ac&#45;8bd6&#45;4ee2&#45;abcd&#45;a39982a43ae7</title>
<ellipse fill="white" stroke="black" cx="519.5" cy="-99.87" rx="96.75" ry="26.74"/>
<text text-anchor="middle" x="519.5" y="-103.67" font-family="Helvetica,sans-Serif" font-size="14.00">▶ Modify</text>
<text text-anchor="middle" x="519.5" y="-88.67" font-family="Helvetica,sans-Serif" font-size="14.00">src/problem2c.py</text>
</g>
<!-- d0017206&#45;3e3f&#45;45ae&#45;bd64&#45;a9c74415ef86&#45;&gt;a9d457ac&#45;8bd6&#45;4ee2&#45;abcd&#45;a39982a43ae7 -->
<g id="edge2" class="edge">
<title>d0017206&#45;3e3f&#45;45ae&#45;bd64&#45;a9c74415ef86&#45;&gt;a9d457ac&#45;8bd6&#45;4ee2&#45;abcd&#45;a39982a43ae7</title>
<path fill="none" stroke="black" d="M358.97,-99.87C376.7,-99.87 394.44,-99.87 412.17,-99.87"/>
<polygon fill="black" stroke="black" points="412.62,-103.37 422.62,-99.87 412.62,-96.37 412.62,-103.37"/>
</g>
<!-- 2fbd44b4&#45;abbd&#45;4b3e&#45;90cf&#45;f35deea8f7d5 -->
<g id="node5" class="node">
<title>2fbd44b4&#45;abbd&#45;4b3e&#45;90cf&#45;f35deea8f7d5</title>
<polygon fill="yellow" stroke="black" points="365,-36 0,-36 0,0 365,0 365,-36"/>
<text text-anchor="middle" x="182.5" y="-14.3" font-family="Helvetica,sans-Serif" font-size="14.00">⋯ Run GitHub Actions for `src/test_problem2c.py`</text>
</g>
<!-- d0017206&#45;3e3f&#45;45ae&#45;bd64&#45;a9c74415ef86&#45;&gt;2fbd44b4&#45;abbd&#45;4b3e&#45;90cf&#45;f35deea8f7d5 -->
<g id="edge1" class="edge">
<title>d0017206&#45;3e3f&#45;45ae&#45;bd64&#45;a9c74415ef86&#45;&gt;2fbd44b4&#45;abbd&#45;4b3e&#45;90cf&#45;f35deea8f7d5</title>
<path fill="none" stroke="black" stroke-dasharray="5,2" d="M220.47,-73.16C214.08,-64.04 206.88,-53.77 200.49,-44.65"/>
<polygon fill="black" stroke="black" points="203.26,-42.52 194.66,-36.34 197.53,-46.53 203.26,-42.52"/>
</g>
<!-- a9d457ac&#45;8bd6&#45;4ee2&#45;abcd&#45;a39982a43ae7&#45;&gt;end -->
<g id="edge5" class="edge">
<title>a9d457ac&#45;8bd6&#45;4ee2&#45;abcd&#45;a39982a43ae7&#45;&gt;end</title>
<path fill="none" stroke="black" d="M616.78,-99.87C635.75,-99.87 653.01,-99.87 663.62,-99.87"/>
<polygon fill="black" stroke="black" points="663.82,-103.37 673.82,-99.87 663.82,-96.37 663.82,-103.37"/>
<text text-anchor="middle" x="645.19" y="-106.67" font-family="Helvetica,sans-Serif" font-size="14.00">Finish</text>
</g>
<!-- 5ff31205&#45;7302&#45;40af&#45;bc9e&#45;7042d4928a0a -->
<g id="node6" class="node">
<title>5ff31205&#45;7302&#45;40af&#45;bc9e&#45;7042d4928a0a</title>
<polygon fill="white" stroke="black" points="711.5,-36 383.5,-36 383.5,0 711.5,0 711.5,-36"/>
<text text-anchor="middle" x="547.5" y="-14.3" font-family="Helvetica,sans-Serif" font-size="14.00">▶ Run GitHub Actions for `src/problem2c.py`</text>
</g>
<!-- a9d457ac&#45;8bd6&#45;4ee2&#45;abcd&#45;a39982a43ae7&#45;&gt;5ff31205&#45;7302&#45;40af&#45;bc9e&#45;7042d4928a0a -->
<g id="edge3" class="edge">
<title>a9d457ac&#45;8bd6&#45;4ee2&#45;abcd&#45;a39982a43ae7&#45;&gt;5ff31205&#45;7302&#45;40af&#45;bc9e&#45;7042d4928a0a</title>
<path fill="none" stroke="black" stroke-dasharray="5,2" d="M528.67,-72.72C531.69,-64.08 535.06,-54.47 538.11,-45.79"/>
<polygon fill="black" stroke="black" points="541.48,-46.74 541.49,-36.15 534.88,-44.43 541.48,-46.74"/>
</g>
</g>
</svg>
