<?xml version="1.0" encoding="UTF-8" standalone="no"?>
<!DOCTYPE svg PUBLIC "-//W3C//DTD SVG 1.1//EN"
 "http://www.w3.org/Graphics/SVG/1.1/DTD/svg11.dtd">
<!-- Generated by graphviz version 2.43.0 (0)
 -->
<!-- Title: %3 Pages: 1 -->
<svg width="714pt" height="238pt"
 viewBox="0.00 0.00 714.00 237.74" xmlns="http://www.w3.org/2000/svg" xmlns:xlink="http://www.w3.org/1999/xlink">
<g id="graph0" class="graph" transform="scale(1 1) rotate(0) translate(36 201.74)">
<title>%3</title>
<polygon fill="dimgray" stroke="transparent" points="-36,36 -36,-201.74 678,-201.74 678,36 -36,36"/>
<text text-anchor="middle" x="321" y="-150.54" font-family="Helvetica,sans-Serif" font-size="14.00">Sweep&#39;s Plan &amp; Progress</text>
<!-- start -->
<g id="node1" class="node">
<title>start</title>
</g>
<!-- b51f2d64&#45;7a6b&#45;418f&#45;ac1c&#45;bd91f7c80b15 -->
<g id="node3" class="node">
<title>b51f2d64&#45;7a6b&#45;418f&#45;ac1c&#45;bd91f7c80b15</title>
<ellipse fill="yellow" stroke="black" cx="226.5" cy="-99.87" rx="96.75" ry="26.74"/>
<text text-anchor="middle" x="226.5" y="-103.67" font-family="Helvetica,sans-Serif" font-size="14.00">⋯ Modify</text>
<text text-anchor="middle" x="226.5" y="-88.67" font-family="Helvetica,sans-Serif" font-size="14.00">src/problem1e.py</text>
</g>
<!-- start&#45;&gt;b51f2d64&#45;7a6b&#45;418f&#45;ac1c&#45;bd91f7c80b15 -->
<g id="edge4" class="edge">
<title>start&#45;&gt;b51f2d64&#45;7a6b&#45;418f&#45;ac1c&#45;bd91f7c80b15</title>
<path fill="none" stroke="black" d="M78.16,-99.87C81.63,-99.87 98.24,-99.87 119.18,-99.87"/>
<polygon fill="black" stroke="black" points="119.42,-103.37 129.42,-99.87 119.42,-96.37 119.42,-103.37"/>
<text text-anchor="middle" x="103.81" y="-106.67" font-family="Helvetica,sans-Serif" font-size="14.00">Start</text>
</g>
<!-- end -->
<g id="node2" class="node">
<title>end</title>
</g>
<!-- 290f7536&#45;6561&#45;4d62&#45;824b&#45;c2c8e2971b67 -->
<g id="node4" class="node">
<title>290f7536&#45;6561&#45;4d62&#45;824b&#45;c2c8e2971b67</title>
<ellipse fill="white" stroke="black" cx="463.5" cy="-99.87" rx="73.58" ry="26.74"/>
<text text-anchor="middle" x="463.5" y="-103.67" font-family="Helvetica,sans-Serif" font-size="14.00">▶ Modify</text>
<text text-anchor="middle" x="463.5" y="-88.67" font-family="Helvetica,sans-Serif" font-size="14.00">README.md</text>
</g>
<!-- b51f2d64&#45;7a6b&#45;418f&#45;ac1c&#45;bd91f7c80b15&#45;&gt;290f7536&#45;6561&#45;4d62&#45;824b&#45;c2c8e2971b67 -->
<g id="edge2" class="edge">
<title>b51f2d64&#45;7a6b&#45;418f&#45;ac1c&#45;bd91f7c80b15&#45;&gt;290f7536&#45;6561&#45;4d62&#45;824b&#45;c2c8e2971b67</title>
<path fill="none" stroke="black" d="M323.71,-99.87C342.38,-99.87 361.05,-99.87 379.72,-99.87"/>
<polygon fill="black" stroke="black" points="379.78,-103.37 389.78,-99.87 379.78,-96.37 379.78,-103.37"/>
</g>
<!-- 91202ff0&#45;9c7e&#45;4d5b&#45;94ad&#45;83cfff5c0160 -->
<g id="node5" class="node">
<title>91202ff0&#45;9c7e&#45;4d5b&#45;94ad&#45;83cfff5c0160</title>
<polygon fill="white" stroke="black" points="329,-36 0,-36 0,0 329,0 329,-36"/>
<text text-anchor="middle" x="164.5" y="-14.3" font-family="Helvetica,sans-Serif" font-size="14.00">▶ Run GitHub Actions for `src/problem1e.py`</text>
</g>
<!-- b51f2d64&#45;7a6b&#45;418f&#45;ac1c&#45;bd91f7c80b15&#45;&gt;91202ff0&#45;9c7e&#45;4d5b&#45;94ad&#45;83cfff5c0160 -->
<g id="edge1" class="edge">
<title>b51f2d64&#45;7a6b&#45;418f&#45;ac1c&#45;bd91f7c80b15&#45;&gt;91202ff0&#45;9c7e&#45;4d5b&#45;94ad&#45;83cfff5c0160</title>
<path fill="none" stroke="black" stroke-dasharray="5,2" d="M206.54,-73.16C199.39,-63.94 191.33,-53.56 184.2,-44.37"/>
<polygon fill="black" stroke="black" points="186.85,-42.09 177.96,-36.34 181.33,-46.38 186.85,-42.09"/>
</g>
<!-- 290f7536&#45;6561&#45;4d62&#45;824b&#45;c2c8e2971b67&#45;&gt;end -->
<g id="edge5" class="edge">
<title>290f7536&#45;6561&#45;4d62&#45;824b&#45;c2c8e2971b67&#45;&gt;end</title>
<path fill="none" stroke="black" d="M537.22,-99.87C555.84,-99.87 573.64,-99.87 584.56,-99.87"/>
<polygon fill="black" stroke="black" points="584.78,-103.37 594.78,-99.87 584.78,-96.37 584.78,-103.37"/>
<text text-anchor="middle" x="566.02" y="-106.67" font-family="Helvetica,sans-Serif" font-size="14.00">Finish</text>
</g>
<!-- 9ede620d&#45;0237&#45;4287&#45;b11f&#45;2439cd0ea37c -->
<g id="node6" class="node">
<title>9ede620d&#45;0237&#45;4287&#45;b11f&#45;2439cd0ea37c</title>
<polygon fill="white" stroke="black" points="642,-36 347,-36 347,0 642,0 642,-36"/>
<text text-anchor="middle" x="494.5" y="-14.3" font-family="Helvetica,sans-Serif" font-size="14.00">▶ Run GitHub Actions for `README.md`</text>
</g>
<!-- 290f7536&#45;6561&#45;4d62&#45;824b&#45;c2c8e2971b67&#45;&gt;9ede620d&#45;0237&#45;4287&#45;b11f&#45;2439cd0ea37c -->
<g id="edge3" class="edge">
<title>290f7536&#45;6561&#45;4d62&#45;824b&#45;c2c8e2971b67&#45;&gt;9ede620d&#45;0237&#45;4287&#45;b11f&#45;2439cd0ea37c</title>
<path fill="none" stroke="black" stroke-dasharray="5,2" d="M473.48,-73.16C476.87,-64.41 480.68,-54.62 484.1,-45.79"/>
<polygon fill="black" stroke="black" points="487.42,-46.93 487.77,-36.34 480.89,-44.39 487.42,-46.93"/>
</g>
</g>
</svg>
