<?xml version="1.0" encoding="UTF-8" standalone="no"?>
<!DOCTYPE svg PUBLIC "-//W3C//DTD SVG 1.1//EN"
 "http://www.w3.org/Graphics/SVG/1.1/DTD/svg11.dtd">
<!-- Generated by graphviz version 2.43.0 (0)
 -->
<!-- Title: %3 Pages: 1 -->
<svg width="780pt" height="238pt"
 viewBox="0.00 0.00 779.50 237.74" xmlns="http://www.w3.org/2000/svg" xmlns:xlink="http://www.w3.org/1999/xlink">
<g id="graph0" class="graph" transform="scale(1 1) rotate(0) translate(36 201.74)">
<title>%3</title>
<polygon fill="dimgray" stroke="transparent" points="-36,36 -36,-201.74 743.5,-201.74 743.5,36 -36,36"/>
<text text-anchor="middle" x="353.75" y="-150.54" font-family="Helvetica,sans-Serif" font-size="14.00">Sweep&#39;s Plan &amp; Progress</text>
<!-- start -->
<g id="node1" class="node">
<title>start</title>
</g>
<!-- d0017206&#45;3e3f&#45;45ae&#45;bd64&#45;a9c74415ef86 -->
<g id="node3" class="node">
<title>d0017206&#45;3e3f&#45;45ae&#45;bd64&#45;a9c74415ef86</title>
<ellipse fill="yellow" stroke="black" cx="235.5" cy="-99.87" rx="120.42" ry="26.74"/>
<text text-anchor="middle" x="235.5" y="-103.67" font-family="Helvetica,sans-Serif" font-size="14.00">⋯ Create</text>
<text text-anchor="middle" x="235.5" y="-88.67" font-family="Helvetica,sans-Serif" font-size="14.00">src/test_problem2c.py</text>
</g>
<!-- start&#45;&gt;d0017206&#45;3e3f&#45;45ae&#45;bd64&#45;a9c74415ef86 -->
<g id="edge4" class="edge">
<title>start&#45;&gt;d0017206&#45;3e3f&#45;45ae&#45;bd64&#45;a9c74415ef86</title>
<path fill="none" stroke="black" d="M64.27,-99.87C67.9,-99.87 84.11,-99.87 105.21,-99.87"/>
<polygon fill="black" stroke="black" points="105.22,-103.37 115.22,-99.87 105.22,-96.37 105.22,-103.37"/>
<text text-anchor="middle" x="89.65" y="-106.67" font-family="Helvetica,sans-Serif" font-size="14.00">Start</text>
</g>
<!-- end -->
<g id="node2" class="node">
<title>end</title>
</g>
<!-- a9d457ac&#45;8bd6&#45;4ee2&#45;abcd&#45;a39982a43ae7 -->
<g id="node4" class="node">
<title>a9d457ac&#45;8bd6&#45;4ee2&#45;abcd&#45;a39982a43ae7</title>
<ellipse fill="white" stroke="black" cx="516.5" cy="-99.87" rx="96.75" ry="26.74"/>
<text text-anchor="middle" x="516.5" y="-103.67" font-family="Helvetica,sans-Serif" font-size="14.00">▶ Modify</text>
<text text-anchor="middle" x="516.5" y="-88.67" font-family="Helvetica,sans-Serif" font-size="14.00">src/problem2c.py</text>
</g>
<!-- d0017206&#45;3e3f&#45;45ae&#45;bd64&#45;a9c74415ef86&#45;&gt;a9d457ac&#45;8bd6&#45;4ee2&#45;abcd&#45;a39982a43ae7 -->
<g id="edge2" class="edge">
<title>d0017206&#45;3e3f&#45;45ae&#45;bd64&#45;a9c74415ef86&#45;&gt;a9d457ac&#45;8bd6&#45;4ee2&#45;abcd&#45;a39982a43ae7</title>
<path fill="none" stroke="black" d="M355.97,-99.87C373.7,-99.87 391.44,-99.87 409.17,-99.87"/>
<polygon fill="black" stroke="black" points="409.62,-103.37 419.62,-99.87 409.62,-96.37 409.62,-103.37"/>
</g>
<!-- 2fbd44b4&#45;abbd&#45;4b3e&#45;90cf&#45;f35deea8f7d5 -->
<g id="node5" class="node">
<title>2fbd44b4&#45;abbd&#45;4b3e&#45;90cf&#45;f35deea8f7d5</title>
<polygon fill="white" stroke="black" points="361,-36 0,-36 0,0 361,0 361,-36"/>
<text text-anchor="middle" x="180.5" y="-14.3" font-family="Helvetica,sans-Serif" font-size="14.00">▶ Run GitHub Actions for `src/test_problem2c.py`</text>
</g>
<!-- d0017206&#45;3e3f&#45;45ae&#45;bd64&#45;a9c74415ef86&#45;&gt;2fbd44b4&#45;abbd&#45;4b3e&#45;90cf&#45;f35deea8f7d5 -->
<g id="edge1" class="edge">
<title>d0017206&#45;3e3f&#45;45ae&#45;bd64&#45;a9c74415ef86&#45;&gt;2fbd44b4&#45;abbd&#45;4b3e&#45;90cf&#45;f35deea8f7d5</title>
<path fill="none" stroke="black" stroke-dasharray="5,2" d="M217.79,-73.16C211.51,-64.04 204.45,-53.77 198.17,-44.65"/>
<polygon fill="black" stroke="black" points="200.99,-42.59 192.44,-36.34 195.23,-46.56 200.99,-42.59"/>
</g>
<!-- a9d457ac&#45;8bd6&#45;4ee2&#45;abcd&#45;a39982a43ae7&#45;&gt;end -->
<g id="edge5" class="edge">
<title>a9d457ac&#45;8bd6&#45;4ee2&#45;abcd&#45;a39982a43ae7&#45;&gt;end</title>
<path fill="none" stroke="black" d="M613.78,-99.87C632.75,-99.87 650.01,-99.87 660.62,-99.87"/>
<polygon fill="black" stroke="black" points="660.82,-103.37 670.82,-99.87 660.82,-96.37 660.82,-103.37"/>
<text text-anchor="middle" x="642.19" y="-106.67" font-family="Helvetica,sans-Serif" font-size="14.00">Finish</text>
</g>
<!-- 5ff31205&#45;7302&#45;40af&#45;bc9e&#45;7042d4928a0a -->
<g id="node6" class="node">
<title>5ff31205&#45;7302&#45;40af&#45;bc9e&#45;7042d4928a0a</title>
<polygon fill="white" stroke="black" points="707.5,-36 379.5,-36 379.5,0 707.5,0 707.5,-36"/>
<text text-anchor="middle" x="543.5" y="-14.3" font-family="Helvetica,sans-Serif" font-size="14.00">▶ Run GitHub Actions for `src/problem2c.py`</text>
</g>
<!-- a9d457ac&#45;8bd6&#45;4ee2&#45;abcd&#45;a39982a43ae7&#45;&gt;5ff31205&#45;7302&#45;40af&#45;bc9e&#45;7042d4928a0a -->
<g id="edge3" class="edge">
<title>a9d457ac&#45;8bd6&#45;4ee2&#45;abcd&#45;a39982a43ae7&#45;&gt;5ff31205&#45;7302&#45;40af&#45;bc9e&#45;7042d4928a0a</title>
<path fill="none" stroke="black" stroke-dasharray="5,2" d="M525.34,-72.72C528.26,-64.08 531.51,-54.47 534.44,-45.79"/>
<polygon fill="black" stroke="black" points="537.82,-46.74 537.7,-36.15 531.19,-44.5 537.82,-46.74"/>
</g>
</g>
</svg>
