<?xml version="1.0" encoding="UTF-8" standalone="no"?>
<!DOCTYPE svg PUBLIC "-//W3C//DTD SVG 1.1//EN"
 "http://www.w3.org/Graphics/SVG/1.1/DTD/svg11.dtd">
<!-- Generated by graphviz version 2.43.0 (0)
 -->
<!-- Title: %3 Pages: 1 -->
<svg width="784pt" height="238pt"
 viewBox="0.00 0.00 784.00 237.74" xmlns="http://www.w3.org/2000/svg" xmlns:xlink="http://www.w3.org/1999/xlink">
<g id="graph0" class="graph" transform="scale(1 1) rotate(0) translate(36 201.74)">
<title>%3</title>
<polygon fill="dimgray" stroke="transparent" points="-36,36 -36,-201.74 748,-201.74 748,36 -36,36"/>
<text text-anchor="middle" x="356" y="-150.54" font-family="Helvetica,sans-Serif" font-size="14.00">Sweep&#39;s Plan &amp; Progress</text>
<!-- start -->
<g id="node1" class="node">
<title>start</title>
</g>
<!-- d0017206&#45;3e3f&#45;45ae&#45;bd64&#45;a9c74415ef86 -->
<g id="node3" class="node">
<title>d0017206&#45;3e3f&#45;45ae&#45;bd64&#45;a9c74415ef86</title>
<ellipse fill="#0ee832" stroke="black" cx="237" cy="-99.87" rx="120.42" ry="26.74"/>
<text text-anchor="middle" x="237" y="-103.67" font-family="Helvetica,sans-Serif" font-size="14.00">✓ Create</text>
<text text-anchor="middle" x="237" y="-88.67" font-family="Helvetica,sans-Serif" font-size="14.00">src/test_problem2c.py</text>
</g>
<!-- start&#45;&gt;d0017206&#45;3e3f&#45;45ae&#45;bd64&#45;a9c74415ef86 -->
<g id="edge4" class="edge">
<title>start&#45;&gt;d0017206&#45;3e3f&#45;45ae&#45;bd64&#45;a9c74415ef86</title>
<path fill="none" stroke="black" d="M65.77,-99.87C69.4,-99.87 85.61,-99.87 106.71,-99.87"/>
<polygon fill="black" stroke="black" points="106.72,-103.37 116.72,-99.87 106.72,-96.37 106.72,-103.37"/>
<text text-anchor="middle" x="91.15" y="-106.67" font-family="Helvetica,sans-Serif" font-size="14.00">Start</text>
</g>
<!-- end -->
<g id="node2" class="node">
<title>end</title>
</g>
<!-- a9d457ac&#45;8bd6&#45;4ee2&#45;abcd&#45;a39982a43ae7 -->
<g id="node4" class="node">
<title>a9d457ac&#45;8bd6&#45;4ee2&#45;abcd&#45;a39982a43ae7</title>
<ellipse fill="#0ee832" stroke="black" cx="518" cy="-99.87" rx="96.75" ry="26.74"/>
<text text-anchor="middle" x="518" y="-103.67" font-family="Helvetica,sans-Serif" font-size="14.00">✓ Modify</text>
<text text-anchor="middle" x="518" y="-88.67" font-family="Helvetica,sans-Serif" font-size="14.00">src/problem2c.py</text>
</g>
<!-- d0017206&#45;3e3f&#45;45ae&#45;bd64&#45;a9c74415ef86&#45;&gt;a9d457ac&#45;8bd6&#45;4ee2&#45;abcd&#45;a39982a43ae7 -->
<g id="edge2" class="edge">
<title>d0017206&#45;3e3f&#45;45ae&#45;bd64&#45;a9c74415ef86&#45;&gt;a9d457ac&#45;8bd6&#45;4ee2&#45;abcd&#45;a39982a43ae7</title>
<path fill="none" stroke="black" d="M357.47,-99.87C375.2,-99.87 392.94,-99.87 410.67,-99.87"/>
<polygon fill="black" stroke="black" points="411.12,-103.37 421.12,-99.87 411.12,-96.37 411.12,-103.37"/>
</g>
<!-- 2fbd44b4&#45;abbd&#45;4b3e&#45;90cf&#45;f35deea8f7d5 -->
<g id="node5" class="node">
<title>2fbd44b4&#45;abbd&#45;4b3e&#45;90cf&#45;f35deea8f7d5</title>
<polygon fill="#0ee832" stroke="black" points="362,-36 0,-36 0,0 362,0 362,-36"/>
<text text-anchor="middle" x="181" y="-14.3" font-family="Helvetica,sans-Serif" font-size="14.00">✓ Run GitHub Actions for `src/test_problem2c.py`</text>
</g>
<!-- d0017206&#45;3e3f&#45;45ae&#45;bd64&#45;a9c74415ef86&#45;&gt;2fbd44b4&#45;abbd&#45;4b3e&#45;90cf&#45;f35deea8f7d5 -->
<g id="edge1" class="edge">
<title>d0017206&#45;3e3f&#45;45ae&#45;bd64&#45;a9c74415ef86&#45;&gt;2fbd44b4&#45;abbd&#45;4b3e&#45;90cf&#45;f35deea8f7d5</title>
<path fill="none" stroke="black" stroke-dasharray="5,2" d="M218.97,-73.16C212.58,-64.04 205.38,-53.77 198.99,-44.65"/>
<polygon fill="black" stroke="black" points="201.76,-42.52 193.16,-36.34 196.03,-46.53 201.76,-42.52"/>
</g>
<!-- a9d457ac&#45;8bd6&#45;4ee2&#45;abcd&#45;a39982a43ae7&#45;&gt;end -->
<g id="edge5" class="edge">
<title>a9d457ac&#45;8bd6&#45;4ee2&#45;abcd&#45;a39982a43ae7&#45;&gt;end</title>
<path fill="none" stroke="black" d="M615.28,-99.87C634.25,-99.87 651.51,-99.87 662.12,-99.87"/>
<polygon fill="black" stroke="black" points="662.32,-103.37 672.32,-99.87 662.32,-96.37 662.32,-103.37"/>
<text text-anchor="middle" x="643.69" y="-106.67" font-family="Helvetica,sans-Serif" font-size="14.00">Finish</text>
</g>
<!-- 5ff31205&#45;7302&#45;40af&#45;bc9e&#45;7042d4928a0a -->
<g id="node6" class="node">
<title>5ff31205&#45;7302&#45;40af&#45;bc9e&#45;7042d4928a0a</title>
<polygon fill="yellow" stroke="black" points="712,-36 380,-36 380,0 712,0 712,-36"/>
<text text-anchor="middle" x="546" y="-14.3" font-family="Helvetica,sans-Serif" font-size="14.00">⋯ Run GitHub Actions for `src/problem2c.py`</text>
</g>
<!-- a9d457ac&#45;8bd6&#45;4ee2&#45;abcd&#45;a39982a43ae7&#45;&gt;5ff31205&#45;7302&#45;40af&#45;bc9e&#45;7042d4928a0a -->
<g id="edge3" class="edge">
<title>a9d457ac&#45;8bd6&#45;4ee2&#45;abcd&#45;a39982a43ae7&#45;&gt;5ff31205&#45;7302&#45;40af&#45;bc9e&#45;7042d4928a0a</title>
<path fill="none" stroke="black" stroke-dasharray="5,2" d="M527.17,-72.72C530.19,-64.08 533.56,-54.47 536.61,-45.79"/>
<polygon fill="black" stroke="black" points="539.98,-46.74 539.99,-36.15 533.38,-44.43 539.98,-46.74"/>
</g>
</g>
</svg>
