<?xml version="1.0" encoding="UTF-8" standalone="no"?>
<!DOCTYPE svg PUBLIC "-//W3C//DTD SVG 1.1//EN"
 "http://www.w3.org/Graphics/SVG/1.1/DTD/svg11.dtd">
<!-- Generated by graphviz version 2.43.0 (0)
 -->
<!-- Title: %3 Pages: 1 -->
<svg width="1158pt" height="238pt"
 viewBox="0.00 0.00 1157.50 237.74" xmlns="http://www.w3.org/2000/svg" xmlns:xlink="http://www.w3.org/1999/xlink">
<g id="graph0" class="graph" transform="scale(1 1) rotate(0) translate(36 201.74)">
<title>%3</title>
<polygon fill="dimgray" stroke="transparent" points="-36,36 -36,-201.74 1121.5,-201.74 1121.5,36 -36,36"/>
<text text-anchor="middle" x="542.75" y="-150.54" font-family="Helvetica,sans-Serif" font-size="14.00">Sweep&#39;s Plan &amp; Progress</text>
<!-- start -->
<g id="node1" class="node">
<title>start</title>
</g>
<!-- b3542fd6&#45;96cc&#45;44c2&#45;b3f8&#45;0c533fef6995 -->
<g id="node3" class="node">
<title>b3542fd6&#45;96cc&#45;44c2&#45;b3f8&#45;0c533fef6995</title>
<ellipse fill="yellow" stroke="black" cx="261" cy="-99.87" rx="166.34" ry="26.74"/>
<text text-anchor="middle" x="261" y="-103.67" font-family="Helvetica,sans-Serif" font-size="14.00">⋯ Create</text>
<text text-anchor="middle" x="261" y="-88.67" font-family="Helvetica,sans-Serif" font-size="14.00">src/tests/test_access_control.py</text>
</g>
<!-- start&#45;&gt;b3542fd6&#45;96cc&#45;44c2&#45;b3f8&#45;0c533fef6995 -->
<g id="edge6" class="edge">
<title>start&#45;&gt;b3542fd6&#45;96cc&#45;44c2&#45;b3f8&#45;0c533fef6995</title>
<path fill="none" stroke="black" d="M43.63,-99.87C46.91,-99.87 62.85,-99.87 84.74,-99.87"/>
<polygon fill="black" stroke="black" points="84.82,-103.37 94.82,-99.87 84.82,-96.37 84.82,-103.37"/>
<text text-anchor="middle" x="69.16" y="-106.67" font-family="Helvetica,sans-Serif" font-size="14.00">Start</text>
</g>
<!-- end -->
<g id="node2" class="node">
<title>end</title>
</g>
<!-- c3396f3f&#45;af4f&#45;4ab5&#45;9724&#45;8fcd279bb0c5 -->
<g id="node4" class="node">
<title>c3396f3f&#45;af4f&#45;4ab5&#45;9724&#45;8fcd279bb0c5</title>
<ellipse fill="white" stroke="black" cx="608" cy="-99.87" rx="97.66" ry="26.74"/>
<text text-anchor="middle" x="608" y="-103.67" font-family="Helvetica,sans-Serif" font-size="14.00">▶ Modify</text>
<text text-anchor="middle" x="608" y="-88.67" font-family="Helvetica,sans-Serif" font-size="14.00">src/problem1d.py</text>
</g>
<!-- b3542fd6&#45;96cc&#45;44c2&#45;b3f8&#45;0c533fef6995&#45;&gt;c3396f3f&#45;af4f&#45;4ab5&#45;9724&#45;8fcd279bb0c5 -->
<g id="edge2" class="edge">
<title>b3542fd6&#45;96cc&#45;44c2&#45;b3f8&#45;0c533fef6995&#45;&gt;c3396f3f&#45;af4f&#45;4ab5&#45;9724&#45;8fcd279bb0c5</title>
<path fill="none" stroke="black" d="M427.38,-99.87C451.67,-99.87 475.96,-99.87 500.25,-99.87"/>
<polygon fill="black" stroke="black" points="500.28,-103.37 510.28,-99.87 500.28,-96.37 500.28,-103.37"/>
</g>
<!-- 01a27f25&#45;1f18&#45;4d7d&#45;b9ee&#45;7963b6ef417b -->
<g id="node6" class="node">
<title>01a27f25&#45;1f18&#45;4d7d&#45;b9ee&#45;7963b6ef417b</title>
<polygon fill="white" stroke="black" points="426,-36 0,-36 0,0 426,0 426,-36"/>
<text text-anchor="middle" x="213" y="-14.3" font-family="Helvetica,sans-Serif" font-size="14.00">▶ Run GitHub Actions for `src/tests/test_access_control.py`</text>
</g>
<!-- b3542fd6&#45;96cc&#45;44c2&#45;b3f8&#45;0c533fef6995&#45;&gt;01a27f25&#45;1f18&#45;4d7d&#45;b9ee&#45;7963b6ef417b -->
<g id="edge1" class="edge">
<title>b3542fd6&#45;96cc&#45;44c2&#45;b3f8&#45;0c533fef6995&#45;&gt;01a27f25&#45;1f18&#45;4d7d&#45;b9ee&#45;7963b6ef417b</title>
<path fill="none" stroke="black" stroke-dasharray="5,2" d="M245.28,-72.72C239.93,-63.8 233.94,-53.84 228.59,-44.95"/>
<polygon fill="black" stroke="black" points="231.46,-42.91 223.3,-36.15 225.46,-46.52 231.46,-42.91"/>
</g>
<!-- 3a906f43&#45;6879&#45;45b2&#45;a4b9&#45;f921debe495a -->
<g id="node5" class="node">
<title>3a906f43&#45;6879&#45;45b2&#45;a4b9&#45;f921debe495a</title>
<ellipse fill="white" stroke="black" cx="877" cy="-99.87" rx="73.58" ry="26.74"/>
<text text-anchor="middle" x="877" y="-103.67" font-family="Helvetica,sans-Serif" font-size="14.00">▶ Modify</text>
<text text-anchor="middle" x="877" y="-88.67" font-family="Helvetica,sans-Serif" font-size="14.00">README.md</text>
</g>
<!-- c3396f3f&#45;af4f&#45;4ab5&#45;9724&#45;8fcd279bb0c5&#45;&gt;3a906f43&#45;6879&#45;45b2&#45;a4b9&#45;f921debe495a -->
<g id="edge4" class="edge">
<title>c3396f3f&#45;af4f&#45;4ab5&#45;9724&#45;8fcd279bb0c5&#45;&gt;3a906f43&#45;6879&#45;45b2&#45;a4b9&#45;f921debe495a</title>
<path fill="none" stroke="black" d="M705.72,-99.87C734.85,-99.87 763.98,-99.87 793.1,-99.87"/>
<polygon fill="black" stroke="black" points="793.4,-103.37 803.4,-99.87 793.4,-96.37 793.4,-103.37"/>
</g>
<!-- c595bf15&#45;0f53&#45;4bdc&#45;91ed&#45;3532eeefed79 -->
<g id="node7" class="node">
<title>c595bf15&#45;0f53&#45;4bdc&#45;91ed&#45;3532eeefed79</title>
<polygon fill="white" stroke="black" points="772.5,-36 443.5,-36 443.5,0 772.5,0 772.5,-36"/>
<text text-anchor="middle" x="608" y="-14.3" font-family="Helvetica,sans-Serif" font-size="14.00">▶ Run GitHub Actions for `src/problem1d.py`</text>
</g>
<!-- c3396f3f&#45;af4f&#45;4ab5&#45;9724&#45;8fcd279bb0c5&#45;&gt;c595bf15&#45;0f53&#45;4bdc&#45;91ed&#45;3532eeefed79 -->
<g id="edge3" class="edge">
<title>c3396f3f&#45;af4f&#45;4ab5&#45;9724&#45;8fcd279bb0c5&#45;&gt;c595bf15&#45;0f53&#45;4bdc&#45;91ed&#45;3532eeefed79</title>
<path fill="none" stroke="black" stroke-dasharray="5,2" d="M608,-72.72C608,-64.27 608,-54.89 608,-46.36"/>
<polygon fill="black" stroke="black" points="611.5,-46.15 608,-36.15 604.5,-46.15 611.5,-46.15"/>
</g>
<!-- 3a906f43&#45;6879&#45;45b2&#45;a4b9&#45;f921debe495a&#45;&gt;end -->
<g id="edge7" class="edge">
<title>3a906f43&#45;6879&#45;45b2&#45;a4b9&#45;f921debe495a&#45;&gt;end</title>
<path fill="none" stroke="black" d="M950.72,-99.87C969.34,-99.87 987.14,-99.87 998.06,-99.87"/>
<polygon fill="black" stroke="black" points="998.28,-103.37 1008.28,-99.87 998.28,-96.37 998.28,-103.37"/>
<text text-anchor="middle" x="979.52" y="-106.67" font-family="Helvetica,sans-Serif" font-size="14.00">Finish</text>
</g>
<!-- 6af31a6e&#45;32cb&#45;4244&#45;8e92&#45;f35031190f0a -->
<g id="node8" class="node">
<title>6af31a6e&#45;32cb&#45;4244&#45;8e92&#45;f35031190f0a</title>
<polygon fill="white" stroke="black" points="1085.5,-36 790.5,-36 790.5,0 1085.5,0 1085.5,-36"/>
<text text-anchor="middle" x="938" y="-14.3" font-family="Helvetica,sans-Serif" font-size="14.00">▶ Run GitHub Actions for `README.md`</text>
</g>
<!-- 3a906f43&#45;6879&#45;45b2&#45;a4b9&#45;f921debe495a&#45;&gt;6af31a6e&#45;32cb&#45;4244&#45;8e92&#45;f35031190f0a -->
<g id="edge5" class="edge">
<title>3a906f43&#45;6879&#45;45b2&#45;a4b9&#45;f921debe495a&#45;&gt;6af31a6e&#45;32cb&#45;4244&#45;8e92&#45;f35031190f0a</title>
<path fill="none" stroke="black" stroke-dasharray="5,2" d="M896.3,-73.6C903.46,-64.22 911.58,-53.59 918.74,-44.22"/>
<polygon fill="black" stroke="black" points="921.7,-46.11 924.99,-36.04 916.14,-41.86 921.7,-46.11"/>
</g>
</g>
</svg>
