<?xml version="1.0" encoding="UTF-8" standalone="no"?>
<!DOCTYPE svg PUBLIC "-//W3C//DTD SVG 1.1//EN"
 "http://www.w3.org/Graphics/SVG/1.1/DTD/svg11.dtd">
<!-- Generated by graphviz version 2.43.0 (0)
 -->
<!-- Title: %3 Pages: 1 -->
<svg width="720pt" height="238pt"
 viewBox="0.00 0.00 719.50 237.74" xmlns="http://www.w3.org/2000/svg" xmlns:xlink="http://www.w3.org/1999/xlink">
<g id="graph0" class="graph" transform="scale(1 1) rotate(0) translate(36 201.74)">
<title>%3</title>
<polygon fill="dimgray" stroke="transparent" points="-36,36 -36,-201.74 683.5,-201.74 683.5,36 -36,36"/>
<text text-anchor="middle" x="323.75" y="-150.54" font-family="Helvetica,sans-Serif" font-size="14.00">Sweep&#39;s Plan &amp; Progress</text>
<!-- start -->
<g id="node1" class="node">
<title>start</title>
</g>
<!-- b51f2d64&#45;7a6b&#45;418f&#45;ac1c&#45;bd91f7c80b15 -->
<g id="node3" class="node">
<title>b51f2d64&#45;7a6b&#45;418f&#45;ac1c&#45;bd91f7c80b15</title>
<ellipse fill="#0ee832" stroke="black" cx="228" cy="-99.87" rx="96.75" ry="26.74"/>
<text text-anchor="middle" x="228" y="-103.67" font-family="Helvetica,sans-Serif" font-size="14.00">✓ Modify</text>
<text text-anchor="middle" x="228" y="-88.67" font-family="Helvetica,sans-Serif" font-size="14.00">src/problem1e.py</text>
</g>
<!-- start&#45;&gt;b51f2d64&#45;7a6b&#45;418f&#45;ac1c&#45;bd91f7c80b15 -->
<g id="edge4" class="edge">
<title>start&#45;&gt;b51f2d64&#45;7a6b&#45;418f&#45;ac1c&#45;bd91f7c80b15</title>
<path fill="none" stroke="black" d="M79.66,-99.87C83.13,-99.87 99.74,-99.87 120.68,-99.87"/>
<polygon fill="black" stroke="black" points="120.92,-103.37 130.92,-99.87 120.92,-96.37 120.92,-103.37"/>
<text text-anchor="middle" x="105.31" y="-106.67" font-family="Helvetica,sans-Serif" font-size="14.00">Start</text>
</g>
<!-- end -->
<g id="node2" class="node">
<title>end</title>
</g>
<!-- 290f7536&#45;6561&#45;4d62&#45;824b&#45;c2c8e2971b67 -->
<g id="node4" class="node">
<title>290f7536&#45;6561&#45;4d62&#45;824b&#45;c2c8e2971b67</title>
<ellipse fill="#0ee832" stroke="black" cx="466" cy="-99.87" rx="73.58" ry="26.74"/>
<text text-anchor="middle" x="466" y="-103.67" font-family="Helvetica,sans-Serif" font-size="14.00">✓ Modify</text>
<text text-anchor="middle" x="466" y="-88.67" font-family="Helvetica,sans-Serif" font-size="14.00">README.md</text>
</g>
<!-- b51f2d64&#45;7a6b&#45;418f&#45;ac1c&#45;bd91f7c80b15&#45;&gt;290f7536&#45;6561&#45;4d62&#45;824b&#45;c2c8e2971b67 -->
<g id="edge2" class="edge">
<title>b51f2d64&#45;7a6b&#45;418f&#45;ac1c&#45;bd91f7c80b15&#45;&gt;290f7536&#45;6561&#45;4d62&#45;824b&#45;c2c8e2971b67</title>
<path fill="none" stroke="black" d="M325.15,-99.87C344.12,-99.87 363.08,-99.87 382.05,-99.87"/>
<polygon fill="black" stroke="black" points="382.28,-103.37 392.28,-99.87 382.28,-96.37 382.28,-103.37"/>
</g>
<!-- 91202ff0&#45;9c7e&#45;4d5b&#45;94ad&#45;83cfff5c0160 -->
<g id="node5" class="node">
<title>91202ff0&#45;9c7e&#45;4d5b&#45;94ad&#45;83cfff5c0160</title>
<polygon fill="#0ee832" stroke="black" points="330,-36 0,-36 0,0 330,0 330,-36"/>
<text text-anchor="middle" x="165" y="-14.3" font-family="Helvetica,sans-Serif" font-size="14.00">✓ Run GitHub Actions for `src/problem1e.py`</text>
</g>
<!-- b51f2d64&#45;7a6b&#45;418f&#45;ac1c&#45;bd91f7c80b15&#45;&gt;91202ff0&#45;9c7e&#45;4d5b&#45;94ad&#45;83cfff5c0160 -->
<g id="edge1" class="edge">
<title>b51f2d64&#45;7a6b&#45;418f&#45;ac1c&#45;bd91f7c80b15&#45;&gt;91202ff0&#45;9c7e&#45;4d5b&#45;94ad&#45;83cfff5c0160</title>
<path fill="none" stroke="black" stroke-dasharray="5,2" d="M207.72,-73.16C200.45,-63.94 192.26,-53.56 185.01,-44.37"/>
<polygon fill="black" stroke="black" points="187.62,-42.02 178.67,-36.34 182.12,-46.36 187.62,-42.02"/>
</g>
<!-- 290f7536&#45;6561&#45;4d62&#45;824b&#45;c2c8e2971b67&#45;&gt;end -->
<g id="edge5" class="edge">
<title>290f7536&#45;6561&#45;4d62&#45;824b&#45;c2c8e2971b67&#45;&gt;end</title>
<path fill="none" stroke="black" d="M539.72,-99.87C558.34,-99.87 576.14,-99.87 587.06,-99.87"/>
<polygon fill="black" stroke="black" points="587.28,-103.37 597.28,-99.87 587.28,-96.37 587.28,-103.37"/>
<text text-anchor="middle" x="568.52" y="-106.67" font-family="Helvetica,sans-Serif" font-size="14.00">Finish</text>
</g>
<!-- 9ede620d&#45;0237&#45;4287&#45;b11f&#45;2439cd0ea37c -->
<g id="node6" class="node">
<title>9ede620d&#45;0237&#45;4287&#45;b11f&#45;2439cd0ea37c</title>
<polygon fill="yellow" stroke="black" points="647.5,-36 348.5,-36 348.5,0 647.5,0 647.5,-36"/>
<text text-anchor="middle" x="498" y="-14.3" font-family="Helvetica,sans-Serif" font-size="14.00">⋯ Run GitHub Actions for `README.md`</text>
</g>
<!-- 290f7536&#45;6561&#45;4d62&#45;824b&#45;c2c8e2971b67&#45;&gt;9ede620d&#45;0237&#45;4287&#45;b11f&#45;2439cd0ea37c -->
<g id="edge3" class="edge">
<title>290f7536&#45;6561&#45;4d62&#45;824b&#45;c2c8e2971b67&#45;&gt;9ede620d&#45;0237&#45;4287&#45;b11f&#45;2439cd0ea37c</title>
<path fill="none" stroke="black" stroke-dasharray="5,2" d="M476.3,-73.16C479.81,-64.41 483.73,-54.62 487.27,-45.79"/>
<polygon fill="black" stroke="black" points="490.58,-46.92 491.05,-36.34 484.09,-44.32 490.58,-46.92"/>
</g>
</g>
</svg>
