<?xml version="1.0" encoding="UTF-8" standalone="no"?>
<!DOCTYPE svg PUBLIC "-//W3C//DTD SVG 1.1//EN"
 "http://www.w3.org/Graphics/SVG/1.1/DTD/svg11.dtd">
<!-- Generated by graphviz version 2.43.0 (0)
 -->
<!-- Title: %3 Pages: 1 -->
<svg width="782pt" height="238pt"
 viewBox="0.00 0.00 781.50 237.74" xmlns="http://www.w3.org/2000/svg" xmlns:xlink="http://www.w3.org/1999/xlink">
<g id="graph0" class="graph" transform="scale(1 1) rotate(0) translate(36 201.74)">
<title>%3</title>
<polygon fill="dimgray" stroke="transparent" points="-36,36 -36,-201.74 745.5,-201.74 745.5,36 -36,36"/>
<text text-anchor="middle" x="354.75" y="-150.54" font-family="Helvetica,sans-Serif" font-size="14.00">Sweep&#39;s Plan &amp; Progress</text>
<!-- start -->
<g id="node1" class="node">
<title>start</title>
</g>
<!-- d0017206&#45;3e3f&#45;45ae&#45;bd64&#45;a9c74415ef86 -->
<g id="node3" class="node">
<title>d0017206&#45;3e3f&#45;45ae&#45;bd64&#45;a9c74415ef86</title>
<ellipse fill="#0ee832" stroke="black" cx="236" cy="-99.87" rx="120.42" ry="26.74"/>
<text text-anchor="middle" x="236" y="-103.67" font-family="Helvetica,sans-Serif" font-size="14.00">✓ Create</text>
<text text-anchor="middle" x="236" y="-88.67" font-family="Helvetica,sans-Serif" font-size="14.00">src/test_problem2c.py</text>
</g>
<!-- start&#45;&gt;d0017206&#45;3e3f&#45;45ae&#45;bd64&#45;a9c74415ef86 -->
<g id="edge4" class="edge">
<title>start&#45;&gt;d0017206&#45;3e3f&#45;45ae&#45;bd64&#45;a9c74415ef86</title>
<path fill="none" stroke="black" d="M64.77,-99.87C68.4,-99.87 84.61,-99.87 105.71,-99.87"/>
<polygon fill="black" stroke="black" points="105.72,-103.37 115.72,-99.87 105.72,-96.37 105.72,-103.37"/>
<text text-anchor="middle" x="90.15" y="-106.67" font-family="Helvetica,sans-Serif" font-size="14.00">Start</text>
</g>
<!-- end -->
<g id="node2" class="node">
<title>end</title>
</g>
<!-- a9d457ac&#45;8bd6&#45;4ee2&#45;abcd&#45;a39982a43ae7 -->
<g id="node4" class="node">
<title>a9d457ac&#45;8bd6&#45;4ee2&#45;abcd&#45;a39982a43ae7</title>
<ellipse fill="#0ee832" stroke="black" cx="517" cy="-99.87" rx="96.75" ry="26.74"/>
<text text-anchor="middle" x="517" y="-103.67" font-family="Helvetica,sans-Serif" font-size="14.00">✓ Modify</text>
<text text-anchor="middle" x="517" y="-88.67" font-family="Helvetica,sans-Serif" font-size="14.00">src/problem2c.py</text>
</g>
<!-- d0017206&#45;3e3f&#45;45ae&#45;bd64&#45;a9c74415ef86&#45;&gt;a9d457ac&#45;8bd6&#45;4ee2&#45;abcd&#45;a39982a43ae7 -->
<g id="edge2" class="edge">
<title>d0017206&#45;3e3f&#45;45ae&#45;bd64&#45;a9c74415ef86&#45;&gt;a9d457ac&#45;8bd6&#45;4ee2&#45;abcd&#45;a39982a43ae7</title>
<path fill="none" stroke="black" d="M356.47,-99.87C374.2,-99.87 391.94,-99.87 409.67,-99.87"/>
<polygon fill="black" stroke="black" points="410.12,-103.37 420.12,-99.87 410.12,-96.37 410.12,-103.37"/>
</g>
<!-- 2fbd44b4&#45;abbd&#45;4b3e&#45;90cf&#45;f35deea8f7d5 -->
<g id="node5" class="node">
<title>2fbd44b4&#45;abbd&#45;4b3e&#45;90cf&#45;f35deea8f7d5</title>
<polygon fill="#0ee832" stroke="black" points="362,-36 0,-36 0,0 362,0 362,-36"/>
<text text-anchor="middle" x="181" y="-14.3" font-family="Helvetica,sans-Serif" font-size="14.00">✓ Run GitHub Actions for `src/test_problem2c.py`</text>
</g>
<!-- d0017206&#45;3e3f&#45;45ae&#45;bd64&#45;a9c74415ef86&#45;&gt;2fbd44b4&#45;abbd&#45;4b3e&#45;90cf&#45;f35deea8f7d5 -->
<g id="edge1" class="edge">
<title>d0017206&#45;3e3f&#45;45ae&#45;bd64&#45;a9c74415ef86&#45;&gt;2fbd44b4&#45;abbd&#45;4b3e&#45;90cf&#45;f35deea8f7d5</title>
<path fill="none" stroke="black" stroke-dasharray="5,2" d="M218.29,-73.16C212.01,-64.04 204.95,-53.77 198.67,-44.65"/>
<polygon fill="black" stroke="black" points="201.49,-42.59 192.94,-36.34 195.73,-46.56 201.49,-42.59"/>
</g>
<!-- a9d457ac&#45;8bd6&#45;4ee2&#45;abcd&#45;a39982a43ae7&#45;&gt;end -->
<g id="edge5" class="edge">
<title>a9d457ac&#45;8bd6&#45;4ee2&#45;abcd&#45;a39982a43ae7&#45;&gt;end</title>
<path fill="none" stroke="black" d="M614.28,-99.87C633.25,-99.87 650.51,-99.87 661.12,-99.87"/>
<polygon fill="black" stroke="black" points="661.32,-103.37 671.32,-99.87 661.32,-96.37 661.32,-103.37"/>
<text text-anchor="middle" x="642.69" y="-106.67" font-family="Helvetica,sans-Serif" font-size="14.00">Finish</text>
</g>
<!-- 5ff31205&#45;7302&#45;40af&#45;bc9e&#45;7042d4928a0a -->
<g id="node6" class="node">
<title>5ff31205&#45;7302&#45;40af&#45;bc9e&#45;7042d4928a0a</title>
<polygon fill="#0ee832" stroke="black" points="709.5,-36 380.5,-36 380.5,0 709.5,0 709.5,-36"/>
<text text-anchor="middle" x="545" y="-14.3" font-family="Helvetica,sans-Serif" font-size="14.00">✓ Run GitHub Actions for `src/problem2c.py`</text>
</g>
<!-- a9d457ac&#45;8bd6&#45;4ee2&#45;abcd&#45;a39982a43ae7&#45;&gt;5ff31205&#45;7302&#45;40af&#45;bc9e&#45;7042d4928a0a -->
<g id="edge3" class="edge">
<title>a9d457ac&#45;8bd6&#45;4ee2&#45;abcd&#45;a39982a43ae7&#45;&gt;5ff31205&#45;7302&#45;40af&#45;bc9e&#45;7042d4928a0a</title>
<path fill="none" stroke="black" stroke-dasharray="5,2" d="M526.17,-72.72C529.19,-64.08 532.56,-54.47 535.61,-45.79"/>
<polygon fill="black" stroke="black" points="538.98,-46.74 538.99,-36.15 532.38,-44.43 538.98,-46.74"/>
</g>
</g>
</svg>
